<svg xmlns="http://www.w3.org/2000/svg" xmlns:xlink="http://www.w3.org/1999/xlink" xmlns:lucid="lucid" width="4500" height="4000"><g transform="translate(3000 3000)" lucid:page-tab-id="0_0"><path d="M-3000-3000h4500v4000h-4500z" fill="#fff"/><path d="M-1140-2554a6 6 0 0 1 6-6h2368a6 6 0 0 1 6 6V494a6 6 0 0 1-6 6h-2368a6 6 0 0 1-6-6z" stroke="#000" stroke-width="8" fill="#fff"/><use xlink:href="#a" transform="matrix(1,0,0,1,-1128,-2548) translate(1171.0013020833333 1515.8090277777778)"/><path d="M-200-2554a6 6 0 0 1 6-6h503.8a6 6 0 0 1 6 6v127.07a6 6 0 0 1-6 6H-194a6 6 0 0 1-6-6z" fill="none"/><use xlink:href="#b" transform="matrix(1,0,0,1,-195,-2555) translate(0 103.80208333333334)"/><path d="M-2760-2079.2v-.8a80 80 0 0 1 80-80 80 80 0 0 1 80 80 80 80 0 0 1-80 80 80 80 0 0 1-80-80v-.8" stroke="#000" stroke-width="10" fill="#fff"/><path d="M-2840-2154a6 6 0 0 1 6-6h308a6 6 0 0 1 6 6v686a6 6 0 0 1-6 6h-308a6 6 0 0 1-6-6z" fill="none"/><path d="M-2680-2000v258.8l160 279.2m-160-279.2l-160 279.2m0-458h320" stroke="#000" stroke-width="10" fill="none"/><use xlink:href="#c" transform="matrix(1,0,0,1,-2920,-1462) translate(129.140625 103.33333333333334)"/><path d="M-2780-699.2v-.8a80 80 0 0 1 80-80 80 80 0 0 1 80 80 80 80 0 0 1-80 80 80 80 0 0 1-80-80v-.8" stroke="#000" stroke-width="10" fill="#fff"/><path d="M-2860-774a6 6 0 0 1 6-6h308a6 6 0 0 1 6 6v686a6 6 0 0 1-6 6h-308a6 6 0 0 1-6-6z" fill="none"/><path d="M-2700-620v258.8L-2540-82m-160-279.2L-2860-82m0-458h320" stroke="#000" stroke-width="10" fill="none"/><use xlink:href="#d" transform="matrix(1,0,0,1,-2940,-82) translate(86.25 103.33333333333334)"/><path d="M-440-2000c0 88.37-107.45 160-240 160s-240-71.63-240-160 107.45-160 240-160 240 71.63 240 160z" stroke="#000" stroke-width="7" fill="#fff"/><use xlink:href="#e" transform="matrix(1,0,0,1,-920,-2160) translate(112.89562500000001 187.5)"/><path d="M-440-1580c0 88.37-107.45 160-240 160s-240-71.63-240-160 107.45-160 240-160 240 71.63 240 160z" stroke="#000" stroke-width="7" fill="#fff"/><use xlink:href="#f" transform="matrix(1,0,0,1,-920,-1740) translate(148.4815625 187.5)"/><path d="M220-1160c0 88.37-107.45 160-240 160s-240-71.63-240-160 107.45-160 240-160 240 71.63 240 160z" stroke="#000" stroke-width="7" fill="#fff"/><use xlink:href="#g" transform="matrix(1,0,0,1,-260,-1320) translate(113.80057291666665 144.58333333333334)"/><use xlink:href="#h" transform="matrix(1,0,0,1,-260,-1320) translate(46.531692708333345 225.24739583333334)"/><path d="M-434.28-580c0 88.37-107.45 160-240 160s-240-71.63-240-160 107.45-160 240-160 240 71.63 240 160z" stroke="#000" stroke-width="7" fill="#fff"/><use xlink:href="#i" transform="matrix(1,0,0,1,-914.282635365727,-740) translate(88.42622395833331 144.58333333333334)"/><use xlink:href="#j" transform="matrix(1,0,0,1,-914.282635365727,-740) translate(253.00955729166665 144.58333333333334)"/><use xlink:href="#k" transform="matrix(1,0,0,1,-914.282635365727,-740) translate(136.635859375 225.24739583333334)"/><path d="M917.14-1160c0 88.37-107.45 160-240 160s-240-71.63-240-160 107.45-160 240-160 240 71.63 240 160z" stroke="#000" stroke-width="7" fill="#fff"/><use xlink:href="#l" transform="matrix(1,0,0,1,437.1413176828635,-1320) translate(167.08833333333334 144.58333333333334)"/><use xlink:href="#m" transform="matrix(1,0,0,1,437.1413176828635,-1320) translate(100.43794270833331 225.24739583333334)"/><path d="M-2689.97-420.1l248.76-4.87 184-11.42 155.42-16.3 176.33-26.3 414.44-68.3 155.4-16.3 184.03-11.43 199.83-3.9" stroke="#3a414a" stroke-width="10" stroke-linejoin="round" fill="none"/><path d="M-2689.85-420.1l-8.12.16" stroke="#3a414a" stroke-width="10" fill="none"/><path d="M-927.78-579.8l-38.52 23.25-.88-45z" stroke="#3a414a" stroke-width="10" fill="#fff"/><path d="M-400-80c0 88.37-107.45 160-240 160S-880 8.37-880-80s107.45-160 240-160 240 71.63 240 160z" stroke="#000" stroke-width="7" fill="#fff"/><use xlink:href="#i" transform="matrix(1,0,0,1,-880,-240) translate(122.85005208333331 144.58333333333334)"/><use xlink:href="#n" transform="matrix(1,0,0,1,-880,-240) translate(287.4333854166666 144.58333333333334)"/><use xlink:href="#o" transform="matrix(1,0,0,1,-880,-240) translate(153.12348958333334 225.24739583333334)"/><path d="M-2689.97-420.1l36.2-.76 38.9-2.44 36.95-3.88 35.3-5.2 33.93-6.47 32.8-7.7 31.86-8.9 31.14-10.1 30.6-11.4 30.28-12.72 30.1-14.17 30.16-15.77 30.42-17.57 30.93-19.64 31.74-22.1 32.97-25.03 34.72-28.74 37.27-33.58 41.13-40.34 47.64-50.8 61.03-70.9 330.33-414.3 47.63-50.8 41.15-40.35 37.28-33.58 34.7-28.74 32.98-25.04 31.75-22.1 30.94-19.63 30.42-17.56 30.15-15.76 30.12-14.17 30.27-12.73 30.6-11.38 31.14-10.12 31.86-8.9 32.8-7.7 33.9-6.45 35.32-5.22 36.94-3.88 26.2-1.65" stroke="#3a414a" stroke-width="10" stroke-linejoin="round" fill="none"/><path d="M-2689.85-420.1l-8.12.16" stroke="#3a414a" stroke-width="10" fill="none"/><path d="M-933.5-1579.7l-38.26 23.7-1.38-45z" stroke="#3a414a" stroke-width="10" fill="#fff"/><path d="M-2689.97-419.9l131.72 2.67 113.54 7.08 97.65 10.22 86.96 12.8 80.37 15.33 77.82 18.25 80.85 22.6 98.6 32.2 365 129.7 80.87 22.6 77.8 18.25 80.37 15.32 86.95 12.8 97.66 10.23 113.55 7.08 82.8 1.68" stroke="#3a414a" stroke-width="10" stroke-linejoin="round" fill="none"/><path d="M-2689.85-419.9l-8.12-.16" stroke="#3a414a" stroke-width="10" fill="none"/><path d="M-893.5-80.2l-39.42 21.7.9-45z" stroke="#3a414a" stroke-width="10" fill="#fff"/><path d="M-477.14-1160c0 88.37-107.45 160-240 160s-240-71.63-240-160 107.45-160 240-160 240 71.63 240 160z" stroke="#000" stroke-width="7" fill="#fff"/><use xlink:href="#p" transform="matrix(1,0,0,1,-957.1413176828635,-1320) translate(139.04145833333334 146.66666666666669)"/><use xlink:href="#q" transform="matrix(1,0,0,1,-957.1413176828635,-1320) translate(70.27843749999998 211.19791666666669)"/><path d="M-2689.97-420.1l25.5-.53 29.25-1.84 28.18-2.96 27.3-4.03 26.54-5.06 25.94-6.1 25.47-7.1 25.1-8.16 24.88-9.25 24.75-10.4 24.74-11.65 24.85-13 25.1-14.5 25.5-16.17 26-18.1 26.76-20.3 27.7-22.94 28.9-26.05 30.5-29.88 32.6-34.72 35.36-41.02 39.32-49.7 45.42-62.6 56.4-85.1 87.8-145.87 249.54-431.58 56.4-85.1 45.4-62.62 39.35-49.7 35.37-41 32.57-34.72 30.5-29.9 28.92-26.05 27.7-22.93 26.75-20.32 26.02-18.1 25.48-16.18 25.1-14.5 24.85-13 24.74-11.64 24.75-10.4 24.87-9.25 25.1-8.16 25.46-7.1 25.94-6.1 26.54-5.06 27.3-4.03 28.18-2.96 5.86-.37" stroke="#3a414a" stroke-width="10" stroke-linejoin="round" fill="none"/><path d="M-2689.85-420.1l-8.12.16" stroke="#3a414a" stroke-width="10" fill="none"/><path d="M-933.5-1999.6l-38.06 24-1.75-44.97z" stroke="#3a414a" stroke-width="10" fill="#fff"/><path d="M-2669.97-1800.1l199.75-3.96 155.57-9.67 129.33-13.53 119.94-17.7 140.26-26.97 392-83.1 119.94-17.7 129.33-13.54 155.57-9.67 150.82-3" stroke="#3a414a" stroke-width="10" stroke-linejoin="round" fill="none"/><path d="M-2669.85-1800.1l-8.12.16" stroke="#3a414a" stroke-width="10" fill="none"/><path d="M-933.5-1999.8l-38.52 23.27-.9-45z" stroke="#3a414a" stroke-width="10" fill="#fff"/><path d="M-2669.97-1799.9l183.63 3.66 146 9.08 121.7 12.73 110.28 16.27 114.23 21.85 504 114.46 110.27 16.27 121.7 12.73 146 9.08 134.7 2.68" stroke="#3a414a" stroke-width="10" stroke-linejoin="round" fill="none"/><path d="M-2669.85-1799.9l-8.12-.16" stroke="#3a414a" stroke-width="10" fill="none"/><path d="M-933.5-1580.2l-39.4 21.72.9-45z" stroke="#3a414a" stroke-width="10" fill="#fff"/><path d="M-2514.98-1799.9l51.84 1.07 51.88 3.25 47.84 5.02 44.56 6.57 41.9 8 39.75 9.32 38.1 10.63 36.9 12 36.1 13.42 35.78 15.04 35.98 16.95 36.82 19.26 38.65 22.34 42.1 26.75 49.18 34.22 69.47 52.95 225.08 179.2 49.16 34.24 42.13 26.76 38.65 22.33 36.82 19.25 35.97 16.94 35.78 15.03 36.1 13.43 36.9 12 38.12 10.62 39.76 9.33 41.9 8 44.55 6.56 47.84 5.02 51.88 3.25 2.9.06" stroke="#3a414a" stroke-width="10" stroke-linejoin="round" fill="none"/><path d="M-2514.75-1804.87l-.2 9.95-8.13-.17.2-9.94z" stroke="#3a414a" stroke-width=".05" fill="#3a414a"/><path d="M-970.64-1160.2l-39.43 21.7.93-45z" stroke="#3a414a" stroke-width="10" fill="#fff"/><path d="M-2654.03-1795.4l1.52 37.3 3.17 38.5 4.42 35.3 5.45 32.56 6.4 30.2 7.18 28.13 7.93 26.37 8.6 24.8 9.27 23.47 9.9 22.27 10.5 21.22 11.12 20.3 11.77 19.46 12.43 18.75 13.13 18.1 13.88 17.56 14.7 17.04 15.56 16.6 16.54 16.23 17.62 15.9 18.8 15.57 20.16 15.33 21.68 15.1 23.4 14.87 25.4 14.7 27.7 14.5 30.4 14.3 33.54 14.14 37.3 13.9 41.87 13.63 47.42 13.27 54.36 12.78 63.24 12.1 74.9 11.07 90.97 9.58 114.6 7.22 153.64 3.17 238.86-5.27 1017.3-51.88" stroke="#3a414a" stroke-width="10" stroke-linejoin="round" fill="none"/><path d="M-2654.03-1795.26l-.2-5.12" stroke="#3a414a" stroke-width="10" fill="none"/><path d="M-273.5-1159.5l-37.76 24.46-2.3-44.94z" stroke="#3a414a" stroke-width="10" fill="#fff"/><path d="M-2647.98-1770.64l137.15-2.63 136.44 3.1 133.1 8.62 132.24 14.16 134.52 20.16 141.26 27.27 156.04 37 191.15 53.98 1029.5 332.94 162.42 38.5 148.24 28.6 142.2 21.3 140.77 15.07 142.6 9.25 100.05 2.27" stroke="#3a414a" stroke-width="10" stroke-linejoin="round" fill="none"/><path d="M-2647.86-1770.64l-5.12.1" stroke="#3a414a" stroke-width="10" fill="none"/><path d="M423.64-1160.2l-39.4 21.72.9-45z" stroke="#3a414a" stroke-width="10" fill="#fff"/><defs><path d="M598-1118v154H368v674c0 100 37 144 132 144 23 0 62-6 92-12L629-6c-37 13-88 20-134 20-193 0-307-107-307-290v-688H20v-154h168v-266h180v266h230" id="r"/><g id="a"><use transform="matrix(0.010850694444444444,0,0,0.010850694444444444,0,0)" xlink:href="#r"/><use transform="matrix(0.010850694444444444,0,0,0.010850694444444444,6.727430555555555,0)" xlink:href="#r"/></g><path d="M538 24C308 24 148-78 108-271l171-41c32 123 123 178 257 178 156 0 256-77 256-169 0-77-54-128-164-154l-186-44c-203-48-300-148-300-305 0-192 176-326 414-326 230 0 351 112 402 269l-163 42c-31-80-94-158-238-158-133 0-233 69-233 162 0 83 57 129 188 160l169 40c203 48 298 149 298 302 0 196-179 339-441 339" id="s"/><path d="M537 14c-226 0-379-139-379-422v-710h180v695c0 172 97 275 253 275 160 0 281-109 281-300v-670h181V0H879v-209C806-46 684 14 537 14" id="t"/><path d="M677 24c-213 0-288-135-325-197h-20V0H158v-1490h180v551h14c37-59 106-193 324-193 279 0 474 222 474 576 0 356-194 580-473 580zm-27-161c209 0 317-186 317-421 0-232-105-413-317-413-206 0-314 166-314 413 0 249 111 421 314 421" id="u"/><path d="M338-1490V0H158v-1490h180" id="v"/><path d="M628 24c-324 0-524-230-524-574 0-343 198-582 503-582 237 0 487 146 487 559v75H286c9 234 145 362 343 362 132 0 231-58 273-172l174 48C1024-91 857 24 628 24zM287-650h624c-17-190-120-322-304-322-192 0-309 151-320 322" id="w"/><path d="M577 24c-279 0-473-224-473-580 0-354 195-576 474-576 218 0 287 134 324 193h14v-551h180V0H922v-173h-20C865-111 790 24 577 24zm27-161c203 0 314-172 314-421 0-247-108-413-314-413-212 0-317 181-317 413 0 235 108 421 317 421" id="x"/><path d="M611 442c-248 0-391-105-460-228l146-94c47 65 117 165 314 165 178 0 307-82 307-266v-224h-17C863-141 792-18 576-18c-268 0-472-195-472-546 0-346 197-568 476-568 216 0 288 133 326 193h17v-179h175V29c0 289-215 413-487 413zm-5-620c203 0 314-146 314-390 0-237-108-403-314-403-213 0-319 180-319 403 0 230 109 390 319 390" id="y"/><path d="M158 0v-1118h174v172h12c41-113 157-188 290-188 26 0 70 2 91 3v181c-11-2-60-10-108-10-161 0-279 109-279 260V0H158" id="z"/><g id="b"><use transform="matrix(0.052083333333333336,0,0,0.052083333333333336,0,0)" xlink:href="#s"/><use transform="matrix(0.052083333333333336,0,0,0.052083333333333336,56.302083333333336,0)" xlink:href="#t"/><use transform="matrix(0.052083333333333336,0,0,0.052083333333333336,119.375,0)" xlink:href="#u"/><use transform="matrix(0.052083333333333336,0,0,0.052083333333333336,184.6875,0)" xlink:href="#v"/><use transform="matrix(0.052083333333333336,0,0,0.052083333333333336,210.52083333333334,0)" xlink:href="#w"/><use transform="matrix(0.052083333333333336,0,0,0.052083333333333336,272.70833333333337,0)" xlink:href="#x"/><use transform="matrix(0.052083333333333336,0,0,0.052083333333333336,338.02083333333337,0)" xlink:href="#y"/><use transform="matrix(0.052083333333333336,0,0,0.052083333333333336,403.43750000000006,0)" xlink:href="#w"/><use transform="matrix(0.052083333333333336,0,0,0.052083333333333336,465.625,0)" xlink:href="#z"/></g><g id="c"><use transform="matrix(0.052083333333333336,0,0,0.052083333333333336,0,0)" xlink:href="#t"/><use transform="matrix(0.052083333333333336,0,0,0.052083333333333336,63.07291666666667,0)" xlink:href="#s"/><use transform="matrix(0.052083333333333336,0,0,0.052083333333333336,119.375,0)" xlink:href="#w"/><use transform="matrix(0.052083333333333336,0,0,0.052083333333333336,181.5625,0)" xlink:href="#z"/></g><path d="M471 26C259 26 90-98 90-318c0-256 228-303 435-329 202-27 287-16 287-108 0-139-79-219-234-219-161 0-248 86-283 164l-173-57c86-203 278-265 451-265 150 0 419 46 419 395V0H815v-152h-12C765-73 660 26 471 26zm31-159c199 0 310-134 310-271v-155c-30 35-226 55-295 64-131 17-246 59-246 186 0 116 97 176 231 176" id="A"/><path d="M158 0v-1118h175l1 205c55-151 181-225 313-225 147 0 245 90 285 228 53-141 190-228 352-228 194 0 352 125 352 384V0h-181v-749c0-161-105-225-225-225-151 0-243 103-243 244V0H807v-767c0-124-93-207-219-207-131 0-250 92-250 270V0H158" id="B"/><path d="M158 0v-1118h180V0H158zm91-1301c-68 0-125-53-125-119s57-119 125-119c69 0 126 53 126 119s-57 119-126 119" id="C"/><path d="M338-670V0H158v-1118h173l1 207c72-158 192-221 342-221 226 0 378 139 378 422V0H872v-695c0-172-96-275-252-275-161 0-282 109-282 300" id="D"/><g id="d"><use transform="matrix(0.052083333333333336,0,0,0.052083333333333336,0,0)" xlink:href="#A"/><use transform="matrix(0.052083333333333336,0,0,0.052083333333333336,59.895833333333336,0)" xlink:href="#x"/><use transform="matrix(0.052083333333333336,0,0,0.052083333333333336,125.20833333333334,0)" xlink:href="#B"/><use transform="matrix(0.052083333333333336,0,0,0.052083333333333336,218.64583333333334,0)" xlink:href="#C"/><use transform="matrix(0.052083333333333336,0,0,0.052083333333333336,244.47916666666669,0)" xlink:href="#D"/></g><path d="M158 418v-1536h174v179h20c37-59 106-193 324-193 279 0 474 222 474 576 0 356-194 580-473 580-213 0-288-135-325-197h-14v591H158zm492-555c209 0 317-186 317-421 0-232-105-413-317-413-206 0-314 166-314 413 0 249 111 421 314 421" id="E"/><g id="e"><use transform="matrix(0.0390625,0,0,0.0390625,0,0)" xlink:href="#s"/><use transform="matrix(0.0390625,0,0,0.0390625,42.2265625,0)" xlink:href="#C"/><use transform="matrix(0.0390625,0,0,0.0390625,61.6015625,0)" xlink:href="#y"/><use transform="matrix(0.0390625,0,0,0.0390625,110.6640625,0)" xlink:href="#D"/><use transform="matrix(0.0390625,0,0,0.0390625,157.9296875,0)" xlink:href="#t"/><use transform="matrix(0.0390625,0,0,0.0390625,205.234375,0)" xlink:href="#E"/></g><path d="M613 24c-304 0-509-231-509-576 0-350 205-580 509-580 305 0 511 230 511 580 0 345-206 576-511 576zm0-161c226 0 329-195 329-415 0-222-103-419-329-419-223 0-326 196-326 419 0 220 103 415 326 415" id="F"/><g id="f"><use transform="matrix(0.0390625,0,0,0.0390625,0,0)" xlink:href="#v"/><use transform="matrix(0.0390625,0,0,0.0390625,19.375,0)" xlink:href="#F"/><use transform="matrix(0.0390625,0,0,0.0390625,67.34375,0)" xlink:href="#y"/><use transform="matrix(0.0390625,0,0,0.0390625,116.40625,0)" xlink:href="#C"/><use transform="matrix(0.0390625,0,0,0.0390625,135.78125,0)" xlink:href="#D"/></g><g id="g"><use transform="matrix(0.032552083333333336,0,0,0.032552083333333336,0,0)" xlink:href="#B"/><use transform="matrix(0.032552083333333336,0,0,0.032552083333333336,58.39843750000001,0)" xlink:href="#A"/><use transform="matrix(0.032552083333333336,0,0,0.032552083333333336,95.83333333333334,0)" xlink:href="#D"/><use transform="matrix(0.032552083333333336,0,0,0.032552083333333336,135.22135416666669,0)" xlink:href="#A"/><use transform="matrix(0.032552083333333336,0,0,0.032552083333333336,172.65625000000003,0)" xlink:href="#y"/><use transform="matrix(0.032552083333333336,0,0,0.032552083333333336,213.54166666666669,0)" xlink:href="#w"/></g><path d="M613 24c-304 0-509-231-509-576 0-350 205-580 509-580 216 0 392 114 453 309l-173 49c-33-115-133-197-280-197-223 0-326 196-326 419 0 220 103 415 326 415 150 0 252-85 285-206l172 49C1010-95 832 24 613 24" id="G"/><g id="h"><use transform="matrix(0.032552083333333336,0,0,0.032552083333333336,0,0)" xlink:href="#r"/><use transform="matrix(0.032552083333333336,0,0,0.032552083333333336,21.809895833333336,0)" xlink:href="#z"/><use transform="matrix(0.032552083333333336,0,0,0.032552083333333336,46.90755208333334,0)" xlink:href="#A"/><use transform="matrix(0.032552083333333336,0,0,0.032552083333333336,84.34244791666669,0)" xlink:href="#D"/><use transform="matrix(0.032552083333333336,0,0,0.032552083333333336,123.73046875000003,0)" xlink:href="#s"/><use transform="matrix(0.032552083333333336,0,0,0.032552083333333336,158.91927083333337,0)" xlink:href="#A"/><use transform="matrix(0.032552083333333336,0,0,0.032552083333333336,196.3541666666667,0)" xlink:href="#G"/><use transform="matrix(0.032552083333333336,0,0,0.032552083333333336,234.4401041666667,0)" xlink:href="#r"/><use transform="matrix(0.032552083333333336,0,0,0.032552083333333336,256.25000000000006,0)" xlink:href="#C"/><use transform="matrix(0.032552083333333336,0,0,0.032552083333333336,272.39583333333337,0)" xlink:href="#F"/><use transform="matrix(0.032552083333333336,0,0,0.032552083333333336,312.3697916666667,0)" xlink:href="#D"/><use transform="matrix(0.032552083333333336,0,0,0.032552083333333336,351.7578125,0)" xlink:href="#s"/></g><path d="M481 0L54-1118h197c107 314 236 620 325 951 87-331 217-637 324-951h197L670 0H481" id="H"/><path d="M409 0L70-1118h191c89 329 165 560 243 925 75-353 154-601 240-925h192c85 325 161 564 235 922 77-354 157-598 244-922h191L1267 0h-179c-86-307-176-590-250-913C763-588 675-308 588 0H409" id="I"/><g id="i"><use transform="matrix(0.032552083333333336,0,0,0.032552083333333336,0,0)" xlink:href="#H"/><use transform="matrix(0.032552083333333336,0,0,0.032552083333333336,37.46744791666667,0)" xlink:href="#C"/><use transform="matrix(0.032552083333333336,0,0,0.032552083333333336,53.61328125000001,0)" xlink:href="#w"/><use transform="matrix(0.032552083333333336,0,0,0.032552083333333336,91.27604166666667,0)" xlink:href="#I"/></g><g id="j"><use transform="matrix(0.032552083333333336,0,0,0.032552083333333336,0,0)" xlink:href="#t"/><use transform="matrix(0.032552083333333336,0,0,0.032552083333333336,39.42057291666667,0)" xlink:href="#s"/><use transform="matrix(0.032552083333333336,0,0,0.032552083333333336,74.609375,0)" xlink:href="#w"/><use transform="matrix(0.032552083333333336,0,0,0.032552083333333336,113.4765625,0)" xlink:href="#z"/></g><g id="k"><use transform="matrix(0.032552083333333336,0,0,0.032552083333333336,0,0)" xlink:href="#x"/><use transform="matrix(0.032552083333333336,0,0,0.032552083333333336,40.8203125,0)" xlink:href="#w"/><use transform="matrix(0.032552083333333336,0,0,0.032552083333333336,79.6875,0)" xlink:href="#r"/><use transform="matrix(0.032552083333333336,0,0,0.032552083333333336,101.82291666666666,0)" xlink:href="#A"/><use transform="matrix(0.032552083333333336,0,0,0.032552083333333336,139.2578125,0)" xlink:href="#C"/><use transform="matrix(0.032552083333333336,0,0,0.032552083333333336,155.40364583333334,0)" xlink:href="#v"/><use transform="matrix(0.032552083333333336,0,0,0.032552083333333336,171.54947916666669,0)" xlink:href="#s"/></g><g id="l"><use transform="matrix(0.032552083333333336,0,0,0.032552083333333336,0,0)" xlink:href="#H"/><use transform="matrix(0.032552083333333336,0,0,0.032552083333333336,37.46744791666667,0)" xlink:href="#C"/><use transform="matrix(0.032552083333333336,0,0,0.032552083333333336,53.61328125000001,0)" xlink:href="#w"/><use transform="matrix(0.032552083333333336,0,0,0.032552083333333336,91.27604166666667,0)" xlink:href="#I"/></g><g id="m"><use transform="matrix(0.032552083333333336,0,0,0.032552083333333336,0,0)" xlink:href="#s"/><use transform="matrix(0.032552083333333336,0,0,0.032552083333333336,35.188802083333336,0)" xlink:href="#r"/><use transform="matrix(0.032552083333333336,0,0,0.032552083333333336,57.32421875000001,0)" xlink:href="#A"/><use transform="matrix(0.032552083333333336,0,0,0.032552083333333336,94.75911458333334,0)" xlink:href="#r"/><use transform="matrix(0.032552083333333336,0,0,0.032552083333333336,116.56901041666669,0)" xlink:href="#C"/><use transform="matrix(0.032552083333333336,0,0,0.032552083333333336,132.71484375000003,0)" xlink:href="#s"/><use transform="matrix(0.032552083333333336,0,0,0.032552083333333336,167.90364583333337,0)" xlink:href="#r"/><use transform="matrix(0.032552083333333336,0,0,0.032552083333333336,189.7135416666667,0)" xlink:href="#C"/><use transform="matrix(0.032552083333333336,0,0,0.032552083333333336,205.85937500000006,0)" xlink:href="#G"/><use transform="matrix(0.032552083333333336,0,0,0.032552083333333336,243.94531250000006,0)" xlink:href="#s"/></g><g id="n"><use transform="matrix(0.032552083333333336,0,0,0.032552083333333336,0,0)" xlink:href="#A"/><use transform="matrix(0.032552083333333336,0,0,0.032552083333333336,37.434895833333336,0)" xlink:href="#v"/><use transform="matrix(0.032552083333333336,0,0,0.032552083333333336,53.58072916666667,0)" xlink:href="#v"/></g><g id="o"><use transform="matrix(0.032552083333333336,0,0,0.032552083333333336,0,0)" xlink:href="#t"/><use transform="matrix(0.032552083333333336,0,0,0.032552083333333336,39.42057291666667,0)" xlink:href="#s"/><use transform="matrix(0.032552083333333336,0,0,0.032552083333333336,74.609375,0)" xlink:href="#w"/><use transform="matrix(0.032552083333333336,0,0,0.032552083333333336,113.4765625,0)" xlink:href="#z"/><use transform="matrix(0.032552083333333336,0,0,0.032552083333333336,138.57421875,0)" xlink:href="#s"/></g><g id="p"><use transform="matrix(0.026041666666666668,0,0,0.026041666666666668,0,0)" xlink:href="#B"/><use transform="matrix(0.026041666666666668,0,0,0.026041666666666668,46.71875,0)" xlink:href="#A"/><use transform="matrix(0.026041666666666668,0,0,0.026041666666666668,76.66666666666667,0)" xlink:href="#D"/><use transform="matrix(0.026041666666666668,0,0,0.026041666666666668,108.17708333333334,0)" xlink:href="#A"/><use transform="matrix(0.026041666666666668,0,0,0.026041666666666668,138.125,0)" xlink:href="#y"/><use transform="matrix(0.026041666666666668,0,0,0.026041666666666668,170.83333333333334,0)" xlink:href="#w"/></g><g id="q"><use transform="matrix(0.026041666666666668,0,0,0.026041666666666668,0,0)" xlink:href="#s"/><use transform="matrix(0.026041666666666668,0,0,0.026041666666666668,28.151041666666668,0)" xlink:href="#t"/><use transform="matrix(0.026041666666666668,0,0,0.026041666666666668,59.6875,0)" xlink:href="#u"/><use transform="matrix(0.026041666666666668,0,0,0.026041666666666668,92.34375,0)" xlink:href="#s"/><use transform="matrix(0.026041666666666668,0,0,0.026041666666666668,120.49479166666667,0)" xlink:href="#G"/><use transform="matrix(0.026041666666666668,0,0,0.026041666666666668,150.96354166666669,0)" xlink:href="#z"/><use transform="matrix(0.026041666666666668,0,0,0.026041666666666668,171.87500000000003,0)" xlink:href="#C"/><use transform="matrix(0.026041666666666668,0,0,0.026041666666666668,184.79166666666669,0)" xlink:href="#E"/><use transform="matrix(0.026041666666666668,0,0,0.026041666666666668,217.44791666666669,0)" xlink:href="#r"/><use transform="matrix(0.026041666666666668,0,0,0.026041666666666668,234.89583333333334,0)" xlink:href="#C"/><use transform="matrix(0.026041666666666668,0,0,0.026041666666666668,247.8125,0)" xlink:href="#F"/><use transform="matrix(0.026041666666666668,0,0,0.026041666666666668,279.7916666666667,0)" xlink:href="#D"/><use transform="matrix(0.026041666666666668,0,0,0.026041666666666668,311.30208333333337,0)" xlink:href="#s"/></g></defs></g></svg>